# AST/ASF file generated using VICON BodyLanguage
# -----------------------------------------------
:version 1.10
:name VICON
:units
  mass 1.0
  length 0.45
  angle deg
:documentation
   .ast/.asf automatically generated from VICON data using
   VICON BodyBuilder and BodyLanguage model FoxedUp or BRILLIANT.MOD
:root
   order TX TY TZ RX RY RZ
   axis XYZ
   position 0 0 0  
   orientation 0 0 0 
:bonedata
  begin
     id 1 
     name lhipjoint
     direction 0.567149 -0.783011 0.255413 
     length 2.28399 
     axis 0 0 0  XYZ
  end
  begin
     id 2 
     name lfemur
     direction 0.34202 -0.939693 0  
     length 7.34031  
     axis 0 0 20  XYZ
    dof rx ry rz
    limits (-160.0 20.0)
           (-70.0 70.0)
           (-60.0 70.0)
  end
  begin
     id 3 
     name ltibia
     direction 0.34202 -0.939693 0   
     length 6.9833   
     axis 0 0 20   XYZ
    dof rx
    limits (-10.0 170.0)
  end
  begin
     id 4 
     name lfoot
     direction 0.136498 -0.375025 0.91691   
     length 2.33665   
     axis -90 7.62852e-016 20   XYZ
    dof rx rz
    limits (-45.0 90.0)
           (-70.0 20.0)
  end
  begin
     id 5 
     name ltoes
     direction 1.5367e-011 -4.21617e-011 1   
     length 1.15039   
     axis -90 7.62852e-016 20   XYZ
    dof rx
    limits (-90.0 20.0)
  end
  begin
     id 6 
     name rhipjoint
     direction -0.602854 -0.758518 0.247423   
     length 2.35775  
     axis 0 0 0  XYZ 
  end
  begin
     id 7 
     name rfemur
     direction -0.34202 -0.939693 0   
     length 7.43932   
     axis 0 0 -20   XYZ
    dof rx ry rz
    limits (-160.0 20.0)
           (-70.0 70.0)
           (-70.0 60.0)
  end
  begin
     id 8 
     name rtibia
     direction -0.34202 -0.939693 0   
     length 7.11893   
     axis 0 0 -20   XYZ
    dof rx
    limits (-10.0 170.0)
 end
 begin
     id 9 
     name rfoot
     direction -0.131771 -0.362037 0.922803   
     length 2.53019  
     axis -90 -7.62852e-016 -20   XYZ
    dof rx rz
    limits (-45.0 90.0)
           (-20.0 70.0)
  end
  begin
     id 10 
     name rtoes
     direction -1.53733e-011 -4.21932e-011 1   
     length 1.24596   
     axis -90 -7.62852e-016 -20   XYZ
    dof rx
    limits (-90.0 20.0)
  end
  begin
     id 11 
     name lowerback
     direction 0.0235427 0.999023 -0.0374125   
     length 2.21768   
     axis 0 0 0   XYZ
    dof rx ry rz
    limits (-20.0 45.0)
           (-30.0 30.0)
           (-30.0 30.0)
  end
  begin
     id 12 
     name upperback
     direction 0.0302156 0.996818 -0.073759   
     length 2.20352   
     axis 0 0 0   XYZ
    dof rx ry rz
    limits (-20.0 45.0)
           (-30.0 30.0)
           (-30.0 30.0)
  end
  begin
     id 13 
     name thorax
     direction 0.0187169 0.998235 -0.0563532   
     length 2.22103   
     axis 0 0 0   XYZ
    dof rx ry rz
    limits (-20.0 45.0)
           (-30.0 30.0)
           (-30.0 30.0)
  end
  begin
     id 14 
     name lowerneck
     direction -0.119528 0.987423 0.103481   
     length 1.72948   
     axis 0 0 0   XYZ
    dof rx ry rz
    limits (-20.0 45.0)
           (-30.0 30.0)
           (-30.0 30.0)
  end
  begin
     id 15 
     name upperneck
     direction 0.248049 0.963095 -0.104496   
     length 1.74979   
     axis 0 0 0   XYZ
    dof rx ry rz
    limits (-20.0 45.0)
           (-30.0 30.0)
           (-30.0 30.0)
  end
  begin
     id 16
     name head
     direction 0.0903589 0.994284 -0.056876  
     length 1.78268  
     axis 0 0 0   XYZ
    dof rx ry rz
    limits (-20.0 45.0)
           (-30.0 30.0)
           (-30.0 30.0)
  end
  begin
     id 17 
     name lclavicle
     direction 0.946008 0.242039 -0.215608  
     length 3.80783  
     axis 0 0 0   XYZ
    dof ry rz
    limits (-20.0 10.0)
           (0.0 20.0)
  end
  begin
     id 18 
     name lhumerus
     direction 1 -4.48991e-011 -2.25695e-027   
     length 4.83125   
     axis 180 -30 -90   XYZ
    dof rx ry rz
    limits (-60.0 90.0)
           (-90.0 90.0)
           (-90.0 90.0)
  end
  begin
     id 19
     name lradius
     direction 0.999991 0.00366712 -0.00211721   
     length 3.00391   
     axis 180 -30 -90   XYZ
    dof rx
    limits (-10.0 170.0)
  end
  begin
     id 20
     name lwrist
     direction 0.999991 0.00393016 -0.00141978   
     length 1.50195   
     axis -1.00488e-014 90 90   XYZ
    dof ry
    limits (-180.0 0.0)
 end
  begin
     id 21 
     name lhand
     direction 1 -4.49123e-011 2.72098e-026   
     length 1.2717   
     axis -1.73687e-014 90 90   XYZ
    dof rx rz
    limits (-90.0 90.0)
           (-45.0 45.0)
  end
  begin
     id 22 
     name lfingers
     direction 1 -4.48678e-011 5.4479e-026   
     length 1.02528   
     axis -3.47372e-014 90 90   XYZ
    dof rx
    limits (0.0 90.0)
  end
  begin
     id 23
     name lthumb
     direction 0.707107 -6.34851e-011 0.707107   
     length 1.4721   
     axis -90 45 -1.62303e-014   XYZ
    dof rx rz
    limits (-45.0 45.0)
           (-45.0 45.0)
  end
  begin
     id 24 
     name rclavicle
     direction -0.981723 0.189447 -0.0181673   
     length 3.74989  
     axis 0 0 0   XYZ 
    dof ry rz
    limits (-10.0 20.0)
           (-20.0 0.0)
  end
  begin
     id 25 
     name rhumerus
     direction -1 -4.48985e-011 2.38206e-027  
     length 4.61118   
     axis 180 30 90   XYZ
    dof rx ry rz
    limits (-90.0 60.0)
           (-90.0 90.0)
           (-90.0 90.0)
  end
  begin
     id 26 
     name rradius
     direction -1 -4.48977e-011 7.41019e-027   
     length 2.91491   
     axis 180 30 90   XYZ
    dof rx
    limits (-10.0 170.0)
  end
  begin
     id 27 
     name rwrist
     direction -1 -4.48549e-011 1.3624e-026   
     length 1.45745   
     axis -1.00488e-014 -90 -90   XYZ
    dof ry
    limits (-180.0 0.0)
  end
  begin
     id 28
     name rhand
     direction -1 -4.49107e-011 2.72109e-026   
     length 1.30769   
     axis -1.73687e-014 -90 -90   XYZ
    dof rx rz
    limits (-90.0 90.0)
           (-45.0 45.0)
  end
  begin
     id 29
     name rfingers
     direction -1 -4.48919e-011 5.44468e-026   
     length 1.05429   
     axis -3.47372e-014 -90 -90   XYZ
    dof rx
    limits (0.0 90.0)
  end
  begin
     id 30
     name rthumb
     direction -0.707107 -6.35315e-011 0.707107   
     length 1.51376   
     axis -90 -45 1.62303e-014   XYZ
    dof rx rz
    limits (-45.0 45.0)
           (-45.0 45.0)
  end
:hierarchy
  begin
    root lhipjoint rhipjoint lowerback
    lhipjoint lfemur
    lfemur ltibia
    ltibia lfoot
    lfoot ltoes
    rhipjoint rfemur
    rfemur rtibia
    rtibia rfoot
    rfoot rtoes
    lowerback upperback
    upperback thorax
    thorax lowerneck lclavicle rclavicle
    lowerneck upperneck
    upperneck head
    lclavicle lhumerus
    lhumerus lradius
    lradius lwrist
    lwrist lhand lthumb
    lhand lfingers
    rclavicle rhumerus
    rhumerus rradius
    rradius rwrist
    rwrist rhand rthumb
    rhand rfingers
  end

#!OML:ASF X:\für Bonn\!DataBase\2005_08_11_Bastian_Final\c3d\Bastian.ASF
:FULLY-SPECIFIED
:DEGREES
1
root -1.60188 17.3565 1.66717 176.96 -6.05653 -174.52
lowerback 13.6113 -1.4351 1.06205
upperback 4.62598 -2.27115 1.33627
thorax -2.73892 -1.36793 1.16157
lowerneck -13.0204 -5.41233 -4.12322
upperneck -5.31479 -7.75156 12.9744
head 1.22821 -4.06947 4.17909
rclavicle 2.28602e-014 -1.11319e-014
rhumerus 79.3034 18.0381 19.9682
rradius 38.6073
rwrist -66.3972
rhand -49.0854 -9.28957
rfingers 7.12502
rthumb -21.711 -38.0921
lclavicle 2.28602e-014 -1.11319e-014
lhumerus 76.1082 -20.572 -33.5609
lradius 30.6928
lwrist 22.927
lhand -43.7406 20.1361
lfingers 7.12502
lthumb -16.5715 49.4485
rfemur -10.8244 1.26061 27.1768
rtibia 39.734
rfoot -22.6538 -11.8521
rtoes -6.08035
lfemur -9.41621 0.294934 -15.1786
ltibia 35.8253
lfoot -18.3246 -4.42687
ltoes -14.0419
2
root -1.60606 17.3551 1.6416 176.945 -5.99147 -174.521
lowerback 13.2538 -1.45537 1.01026
upperback 4.64594 -2.30463 1.34359
thorax -2.52273 -1.38211 1.18877
lowerneck -12.8202 -5.37236 -4.13981
upperneck -5.41709 -7.68827 12.9831
head 1.16274 -4.04739 4.1956
rclavicle 1.3418e-014 0
rhumerus 79.4614 18.081 19.9103
rradius 38.5341
rwrist -66.3158
rhand -48.9364 -9.36038
rfingers 7.12502
rthumb -21.5679 -38.1794
lclavicle 1.3418e-014 0
lhumerus 76.107 -20.7952 -33.5398
lradius 30.8642
lwrist 23.2389
lhand -43.8732 20.685
lfingers 7.12502
lthumb -16.6991 49.9868
rfemur -10.5987 1.61488 27.2422
rtibia 39.5906
rfoot -22.6276 -12.2537
rtoes -6.15143
lfemur -9.18928 0.451849 -15.1691
ltibia 35.6914
lfoot -18.3622 -4.49063
ltoes -14.0026
3
root -1.61075 17.3514 1.61845 176.931 -5.90979 -174.523
lowerback 12.9251 -1.46427 0.999895
upperback 4.66016 -2.31717 1.32516
thorax -2.33074 -1.38528 1.16384
lowerneck -12.6087 -5.34966 -4.12762
upperneck -5.5198 -7.65301 13.0015
head 1.09713 -4.04027 4.20874
rclavicle -4.07509e-015 -3.97569e-015
rhumerus 79.5772 18.1256 19.9403
rradius 38.5395
rwrist -66.4328
rhand -48.8771 -9.34854
rfingers 7.12502
rthumb -21.511 -38.1741
lclavicle -4.07509e-015 -3.97569e-015
lhumerus 76.1811 -20.9813 -33.7198
lradius 31.1073
lwrist 23.7706
lhand -44.0348 21.1787
lfingers 7.12502
lthumb -16.8547 50.4672
rfemur -10.4202 1.93047 27.2976
rtibia 39.5067
rfoot -22.5573 -12.5885
rtoes -6.13589
lfemur -8.99306 0.625819 -15.1603
ltibia 35.6145
lfoot -18.3972 -4.55102
ltoes -13.7538
4
root -1.61521 17.347 1.5973 176.879 -5.80587 -174.522
lowerback 12.6874 -1.47495 0.981203
upperback 4.67597 -2.33429 1.31507
thorax -2.18541 -1.39218 1.15647
lowerneck -12.502 -6.611 -3.81065
upperneck -5.29978 -7.36579 13.0607
head 1.12824 -2.95847 4.20663
rclavicle 1.39149e-014 7.15625e-015
rhumerus 79.7429 18.1046 20.1593
rradius 38.6139
rwrist -66.7822
rhand -48.8478 -9.30839
rfingers 7.12502
rthumb -21.4828 -38.1371
lclavicle 1.39149e-014 7.15625e-015
lhumerus 76.0688 -21.1905 -33.2615
lradius 31.1942
lwrist 23.7794
lhand -44.0427 21.3936
lfingers 7.12502
lthumb -16.8623 50.6815
rfemur -10.2455 2.21398 27.3519
rtibia 39.4764
rfoot -22.5074 -12.8719
rtoes -5.96169
lfemur -8.77693 0.758818 -15.1545
ltibia 35.5729
lfoot -18.4478 -4.54092
ltoes -13.6116
5
root -1.61929 17.3427 1.57897 176.834 -5.7139 -174.521
lowerback 12.4792 -1.47836 0.980852
upperback 4.69357 -2.34004 1.29623
thorax -2.05517 -1.39353 1.12918
lowerneck -12.4052 -6.59547 -3.80677
upperneck -5.33392 -7.34371 13.0938
head 1.10288 -2.95208 4.2199
rclavicle -1.47101e-014 5.1684e-015
rhumerus 79.8254 18.0764 20.2822
rradius 38.7175
rwrist -67.1783
rhand -48.8437 -9.16758
rfingers 7.12502
rthumb -21.4789 -37.9968
lclavicle -1.47101e-014 5.1684e-015
lhumerus 75.8478 -21.3781 -32.1625
lradius 31.0598
lwrist 23.2322
lhand -43.9221 21.3454
lfingers 7.12502
lthumb -16.7462 50.6432
rfemur -10.1293 2.44746 27.3977
rtibia 39.4974
rfoot -22.4238 -13.109
rtoes -5.64443
lfemur -8.59704 1.02753 -15.1318
ltibia 35.5446
lfoot -18.4338 -4.66272
ltoes -13.383
6
root -1.62362 17.3379 1.56362 176.751 -5.59315 -174.544
lowerback 12.352 -1.47477 0.957503
upperback 4.71093 -2.33996 1.27549
thorax -1.96832 -1.39308 1.11527
lowerneck -12.258 -6.58005 -3.7731
upperneck -5.42391 -7.321 13.0649
head 1.04859 -2.95127 4.21151
rclavicle -1.90833e-014 7.95139e-016
rhumerus 79.9147 18.0624 20.4117
rradius 38.8473
rwrist -67.6105
rhand -48.8535 -9.00457
rfingers 7.12502
rthumb -21.4883 -37.8327
lclavicle -1.90833e-014 7.95139e-016
lhumerus 75.5587 -21.586 -30.9008
lradius 30.9233
lwrist 22.6229
lhand -43.762 21.1009
lfingers 7.12502
lthumb -16.5921 50.4116
rfemur -10.0157 2.56969 27.3942
rtibia 39.5635
rfoot -22.2964 -13.224
rtoes -5.26623
lfemur -8.38065 1.21985 -15.1471
ltibia 35.5264
lfoot -18.4109 -4.68652
ltoes -12.9322
7
root -1.62716 17.3336 1.5515 176.675 -5.47638 -174.614
lowerback 12.2784 -1.46189 0.8973
upperback 4.71164 -2.32941 1.24107
thorax -1.92731 -1.38693 1.10897
lowerneck -12.1385 -6.57204 -3.76619
upperneck -5.47164 -7.31108 13.0523
head 1.01406 -2.95445 4.21038
rclavicle 1.5207e-014 2.0276e-014
rhumerus 79.9938 18.0998 20.5203
rradius 38.9798
rwrist -68.024
rhand -48.9218 -8.77158
rfingers 7.12502
rthumb -21.554 -37.5922
lclavicle 1.5207e-014 2.0276e-014
lhumerus 75.4109 -21.8102 -30.1093
lradius 30.9238
lwrist 22.5245
lhand -43.7095 20.8688
lfingers 7.12502
lthumb -16.5415 50.1838
rfemur -9.95375 2.59943 27.3206
rtibia 39.6775
rfoot -22.2268 -13.1994
rtoes -4.84156
lfemur -8.19372 1.5165 -15.1951
ltibia 35.5093
lfoot -18.3614 -4.79894
ltoes -12.576
8
root -1.63012 17.3287 1.54369 176.565 -5.34636 -174.658
lowerback 12.2708 -1.45181 0.860859
upperback 4.72936 -2.32342 1.21419
thorax -1.90463 -1.38496 1.09998
lowerneck -12.0429 -6.55666 -3.76504
upperneck -5.50756 -7.29044 13.055
head 0.986939 -2.95024 4.21475
rclavicle 1.13307e-014 -1.63003e-014
rhumerus 80.0398 18.1934 20.3789
rradius 39.0574
rwrist -68.1693
rhand -48.9776 -8.555
rfingers 7.12502
rthumb -21.6075 -37.3695
lclavicle 1.13307e-014 -1.63003e-014
lhumerus 75.2661 -22.0481 -29.3912
lradius 30.9207
lwrist 22.4899
lhand -43.7035 20.6219
lfingers 7.12502
lthumb -16.5357 49.9373
rfemur -9.89943 2.55533 27.2642
rtibia 39.8382
rfoot -22.174 -13.0959
rtoes -4.43833
lfemur -7.99104 1.84984 -15.2111
ltibia 35.4899
lfoot -18.326 -4.9294
ltoes -12.5353
9
root -1.63267 17.3219 1.53808 176.425 -5.21773 -174.726
lowerback 12.3422 -1.42405 0.812748
upperback 4.73235 -2.29388 1.17381
thorax -1.94055 -1.37105 1.08376
lowerneck -11.8787 -6.56255 -3.75974
upperneck -5.5765 -7.2983 13.0472
head 0.940903 -2.96471 4.21552
rclavicle -5.01931e-014 2.3059e-014
rhumerus 80.0803 18.3429 20.305
rradius 39.1415
rwrist -68.3572
rhand -49.0712 -8.36929
rfingers 7.12502
rthumb -21.6974 -37.1734
lclavicle -5.01931e-014 2.3059e-014
lhumerus 75.267 -22.3079 -28.9437
lradius 30.9544
lwrist 22.7035
lhand -43.7754 20.3566
lfingers 7.12502
lthumb -16.605 49.6662
rfemur -9.85544 2.43192 27.1729
rtibia 40.0452
rfoot -22.1126 -12.9597
rtoes -4.31621
lfemur -7.76829 2.22552 -15.2391
ltibia 35.4698
lfoot -18.2643 -5.11993
ltoes -12.2825
10
root -1.63486 17.3142 1.53502 176.26 -5.07434 -174.863
lowerback 12.4721 -1.37657 0.723849
upperback 4.74644 -2.24553 1.09326
thorax -1.99704 -1.34863 1.04802
lowerneck -11.7267 -6.59062 -3.74707
upperneck -5.62726 -7.33886 13.0529
head 0.905204 -2.99412 4.21676
rclavicle 2.25621e-014 -1.98785e-014
rhumerus 80.0591 18.5018 20.2512
rradius 39.2571
rwrist -68.5512
rhand -49.177 -8.18716
rfingers 7.12502
rthumb -21.799 -36.9795
lclavicle 2.25621e-014 -1.98785e-014
lhumerus 75.3006 -22.5637 -28.5613
lradius 31.0015
lwrist 22.9077
lhand -43.8614 20.1064
lfingers 7.12502
lthumb -16.6878 49.4091
rfemur -9.81617 2.23753 26.9866
rtibia 40.3058
rfoot -22.0958 -12.7042
rtoes -4.02522
lfemur -7.51397 2.53889 -15.3494
ltibia 35.4457
lfoot -18.2459 -5.25446
ltoes -12.2148
11
root -1.63684 17.3058 1.53443 176.054 -4.93212 -175.021
lowerback 12.6851 -1.33073 0.600216
upperback 4.76671 -2.20635 1.02077
thorax -2.0903 -1.33259 1.04423
lowerneck -11.5927 -6.60351 -3.75452
upperneck -5.6664 -7.35863 13.0483
head 0.874292 -3.01259 4.21886
rclavicle 3.40916e-014 9.93923e-015
rhumerus 80.0547 18.6362 20.1638
rradius 39.3588
rwrist -68.6716
rhand -49.2342 -8.04097
rfingers 7.12502
rthumb -21.8539 -36.8269
lclavicle 3.40916e-014 9.93923e-015
lhumerus 75.3746 -22.8385 -28.3639
lradius 31.0734
lwrist 23.15
lhand -43.9599 20.0044
lfingers 7.12502
lthumb -16.7826 49.299
rfemur -9.77305 2.00679 26.7759
rtibia 40.612
rfoot -22.0629 -12.4249
rtoes -3.74842
lfemur -7.24275 2.97413 -15.4624
ltibia 35.4319
lfoot -18.1954 -5.46894
ltoes -12.3139
12
root -1.63839 17.2958 1.5355 175.799 -4.79156 -175.225
lowerback 12.9601 -1.27194 0.429118
upperback 4.80768 -2.16119 0.939883
thorax -2.19427 -1.31581 1.05907
lowerneck -11.4449 -6.62877 -3.7539
upperneck -5.71461 -7.39681 13.0216
head 0.838519 -3.04207 4.2124
rclavicle -1.38155e-014 9.93923e-015
rhumerus 80.0463 18.7398 20.2177
rradius 39.5132
rwrist -68.8403
rhand -49.3358 -7.97854
rfingers 7.12502
rthumb -21.9515 -36.7531
lclavicle -1.38155e-014 9.93923e-015
lhumerus 75.4687 -23.1118 -28.2663
lradius 31.1517
lwrist 23.4199
lhand -44.0951 19.9102
lfingers 7.12502
lthumb -16.9128 49.1937
rfemur -9.70257 1.73032 26.5026
rtibia 40.972
rfoot -22.0854 -12.0973
rtoes -3.46843
lfemur -6.92213 3.33909 -15.6278
ltibia 35.4288
lfoot -18.1681 -5.64209
ltoes -12.2337
13
root -1.6397 17.2836 1.53916 175.521 -4.65706 -175.428
lowerback 13.3039 -1.2111 0.273343
upperback 4.83257 -2.11228 0.848832
thorax -2.35297 -1.29668 1.05666
lowerneck -11.2128 -6.64955 -3.74354
upperneck -5.77262 -7.43416 12.9847
head 0.785571 -3.07668 4.20349
rclavicle -5.46658e-015 -2.46493e-014
rhumerus 80.0137 18.9125 20.153
rradius 39.6256
rwrist -68.9054
rhand -49.3764 -7.95015
rfingers 7.12502
rthumb -21.9905 -36.7201
lclavicle -5.46658e-015 -2.46493e-014
lhumerus 75.5682 -23.4167 -28.1359
lradius 31.1926
lwrist 23.4112
lhand -44.1798 20.0101
lfingers 7.12502
lthumb -16.9943 49.2867
rfemur -9.64293 1.43329 26.2297
rtibia 41.3666
rfoot -22.0859 -11.7653
rtoes -3.30361
lfemur -6.61854 3.68367 -15.7923
ltibia 35.4684
lfoot -18.1643 -5.80669
ltoes -12.3696
